<svg width="351" height="413" viewBox="0 0 351 413" fill="none" xmlns="http://www.w3.org/2000/svg">
<path d="M313.618 0C315.827 0 317.618 1.79086 317.618 4V18.4639H347.002C349.211 18.4639 351.002 20.2549 351.002 22.4639V412.046H0V6C2.57711e-07 2.68629 2.68629 0 6 0H313.618ZM42.1523 122.088C39.9432 122.088 38.1523 123.879 38.1523 126.088V362.263C38.1523 364.472 39.9432 366.263 42.1523 366.263H308.85C311.059 366.263 312.85 364.472 312.85 362.263V126.088C312.85 123.879 311.059 122.088 308.85 122.088H42.1523ZM77.2588 28.6143C55.661 28.6143 38.1523 46.1229 38.1523 67.7207C38.1524 89.3184 55.6611 106.827 77.2588 106.827H273.743C295.341 106.827 312.85 89.3184 312.85 67.7207C312.85 46.1229 295.341 28.6143 273.743 28.6143H77.2588Z" fill="#161616"/>
<mask id="path-2-outside-1_2524_251" maskUnits="userSpaceOnUse" x="318.967" y="33.3373" width="31" height="11" fill="black">
<rect fill="white" x="318.967" y="33.3373" width="31" height="11"/>
<path d="M318.967 35.0373C318.967 34.6507 319.28 34.3373 319.667 34.3373H349.094V43.8753H319.667C319.28 43.8753 318.967 43.5619 318.967 43.1753V35.0373Z"/>
</mask>
<path d="M318.967 35.0373C318.967 34.6507 319.28 34.3373 319.667 34.3373H349.094V43.8753H319.667C319.28 43.8753 318.967 43.5619 318.967 43.1753V35.0373Z" fill="#007A55"/>
<path d="M318.967 35.0373C318.967 34.1812 319.661 33.4873 320.517 33.4873H349.094V35.1873H319.667C319.28 35.1873 318.967 35.1873 318.967 35.1873V35.0373ZM318.967 35.1873M349.094 43.8753H318.967H349.094M349.094 43.8753M318.967 43.8753V34.3373V43.8753M318.967 43.8753M349.094 34.3373V43.8753V34.3373" fill="black" mask="url(#path-2-outside-1_2524_251)"/>
<mask id="path-4-inside-2_2524_251" fill="white">
<path d="M318.967 35.0373C318.967 34.6507 319.28 34.3373 319.667 34.3373H349.094V43.8753H319.667C319.28 43.8753 318.967 43.5619 318.967 43.1753V35.0373Z"/>
</mask>
<path d="M318.967 35.0373C318.967 34.6507 319.28 34.3373 319.667 34.3373H349.094V43.8753H319.667C319.28 43.8753 318.967 43.5619 318.967 43.1753V35.0373Z" fill="#007A55"/>
<path d="M318.967 34.3373H349.094H318.967M349.094 44.3753H320.167C319.504 44.3753 318.967 43.8381 318.967 43.1753V43.1753C318.967 43.2858 319.28 43.3753 319.667 43.3753H349.094V44.3753ZM349.094 43.3753M318.967 43.8753V34.3373V43.8753M318.967 43.8753M349.094 34.3373V43.8753V34.3373" fill="#535353" mask="url(#path-4-inside-2_2524_251)"/>
<mask id="path-6-outside-3_2524_251" maskUnits="userSpaceOnUse" x="318.967" y="46.6906" width="31" height="11" fill="black">
<rect fill="white" x="318.967" y="46.6906" width="31" height="11"/>
<path d="M318.967 48.3906C318.967 48.004 319.28 47.6906 319.667 47.6906H349.094V57.2286H319.667C319.28 57.2286 318.967 56.9152 318.967 56.5286V48.3906Z"/>
</mask>
<path d="M318.967 48.3906C318.967 48.004 319.28 47.6906 319.667 47.6906H349.094V57.2286H319.667C319.28 57.2286 318.967 56.9152 318.967 56.5286V48.3906Z" fill="#007A55"/>
<path d="M318.967 48.3906C318.967 47.5345 319.661 46.8406 320.517 46.8406H349.094V48.5406H319.667C319.28 48.5406 318.967 48.5406 318.967 48.5406V48.3906ZM318.967 48.5406M349.094 57.2286H318.967H349.094M349.094 57.2286M318.967 57.2286V47.6906V57.2286M318.967 57.2286M349.094 47.6906V57.2286V47.6906" fill="black" mask="url(#path-6-outside-3_2524_251)"/>
<mask id="path-8-inside-4_2524_251" fill="white">
<path d="M318.967 48.3906C318.967 48.004 319.28 47.6906 319.667 47.6906H349.094V57.2286H319.667C319.28 57.2286 318.967 56.9152 318.967 56.5286V48.3906Z"/>
</mask>
<path d="M318.967 48.3906C318.967 48.004 319.28 47.6906 319.667 47.6906H349.094V57.2286H319.667C319.28 57.2286 318.967 56.9152 318.967 56.5286V48.3906Z" fill="#007A55"/>
<path d="M318.967 47.6906H349.094H318.967M349.094 57.7286H320.167C319.504 57.7286 318.967 57.1913 318.967 56.5286V56.5286C318.967 56.6391 319.28 56.7286 319.667 56.7286H349.094V57.7286ZM349.094 56.7286M318.967 57.2286V47.6906V57.2286M318.967 57.2286M349.094 47.6906V57.2286V47.6906" fill="#535353" mask="url(#path-8-inside-4_2524_251)"/>
<mask id="path-10-outside-5_2524_251" maskUnits="userSpaceOnUse" x="318.967" y="60.0438" width="31" height="11" fill="black">
<rect fill="white" x="318.967" y="60.0438" width="31" height="11"/>
<path d="M318.967 61.7438C318.967 61.3572 319.28 61.0438 319.667 61.0438H349.094V70.5819H319.667C319.28 70.5819 318.967 70.2685 318.967 69.8819V61.7438Z"/>
</mask>
<path d="M318.967 61.7438C318.967 61.3572 319.28 61.0438 319.667 61.0438H349.094V70.5819H319.667C319.28 70.5819 318.967 70.2685 318.967 69.8819V61.7438Z" fill="#007A55"/>
<path d="M318.967 61.7438C318.967 60.8878 319.661 60.1938 320.517 60.1938H349.094V61.8938H319.667C319.28 61.8938 318.967 61.8938 318.967 61.8938V61.7438ZM318.967 61.8938M349.094 70.5819H318.967H349.094M349.094 70.5819M318.967 70.5819V61.0438V70.5819M318.967 70.5819M349.094 61.0438V70.5819V61.0438" fill="black" mask="url(#path-10-outside-5_2524_251)"/>
<mask id="path-12-inside-6_2524_251" fill="white">
<path d="M318.967 61.7438C318.967 61.3572 319.28 61.0438 319.667 61.0438H349.094V70.5819H319.667C319.28 70.5819 318.967 70.2685 318.967 69.8819V61.7438Z"/>
</mask>
<path d="M318.967 61.7438C318.967 61.3572 319.28 61.0438 319.667 61.0438H349.094V70.5819H319.667C319.28 70.5819 318.967 70.2685 318.967 69.8819V61.7438Z" fill="#007A55"/>
<path d="M318.967 61.0438H349.094H318.967M349.094 71.0819H320.167C319.504 71.0819 318.967 70.5446 318.967 69.8819V69.8819C318.967 69.9923 319.28 70.0819 319.667 70.0819H349.094V71.0819ZM349.094 70.0819M318.967 70.5819V61.0438V70.5819M318.967 70.5819M349.094 61.0438V70.5819V61.0438" fill="#535353" mask="url(#path-12-inside-6_2524_251)"/>
<mask id="path-14-outside-7_2524_251" maskUnits="userSpaceOnUse" x="318.967" y="73.3971" width="31" height="11" fill="black">
<rect fill="white" x="318.967" y="73.3971" width="31" height="11"/>
<path d="M318.967 75.0971C318.967 74.7105 319.28 74.3971 319.667 74.3971H349.094V83.9351H319.667C319.28 83.9351 318.967 83.6217 318.967 83.2351V75.0971Z"/>
</mask>
<path d="M318.967 75.0971C318.967 74.7105 319.28 74.3971 319.667 74.3971H349.094V83.9351H319.667C319.28 83.9351 318.967 83.6217 318.967 83.2351V75.0971Z" fill="#007A55"/>
<path d="M318.967 75.0971C318.967 74.2411 319.661 73.5471 320.517 73.5471H349.094V75.2471H319.667C319.28 75.2471 318.967 75.2471 318.967 75.2471V75.0971ZM318.967 75.2471M349.094 83.9351H318.967H349.094M349.094 83.9351M318.967 83.9351V74.3971V83.9351M318.967 83.9351M349.094 74.3971V83.9351V74.3971" fill="black" mask="url(#path-14-outside-7_2524_251)"/>
<mask id="path-16-inside-8_2524_251" fill="white">
<path d="M318.967 75.0971C318.967 74.7105 319.28 74.3971 319.667 74.3971H349.094V83.9351H319.667C319.28 83.9351 318.967 83.6217 318.967 83.2351V75.0971Z"/>
</mask>
<path d="M318.967 75.0971C318.967 74.7105 319.28 74.3971 319.667 74.3971H349.094V83.9351H319.667C319.28 83.9351 318.967 83.6217 318.967 83.2351V75.0971Z" fill="#007A55"/>
<path d="M318.967 74.3971H349.094H318.967M349.094 84.4351H320.167C319.504 84.4351 318.967 83.8979 318.967 83.2351V83.2351C318.967 83.3456 319.28 83.4351 319.667 83.4351H349.094V84.4351ZM349.094 83.4351M318.967 83.9351V74.3971V83.9351M318.967 83.9351M349.094 74.3971V83.9351V74.3971" fill="#535353" mask="url(#path-16-inside-8_2524_251)"/>
<mask id="path-18-outside-9_2524_251" maskUnits="userSpaceOnUse" x="318.967" y="86.7506" width="31" height="11" fill="black">
<rect fill="white" x="318.967" y="86.7506" width="31" height="11"/>
<path d="M318.967 88.4506C318.967 88.064 319.28 87.7506 319.667 87.7506H349.094V97.2887H319.667C319.28 97.2887 318.967 96.9753 318.967 96.5887V88.4506Z"/>
</mask>
<path d="M318.967 88.4506C318.967 88.064 319.28 87.7506 319.667 87.7506H349.094V97.2887H319.667C319.28 97.2887 318.967 96.9753 318.967 96.5887V88.4506Z" fill="#007A55"/>
<path d="M318.967 88.4506C318.967 87.5946 319.661 86.9006 320.517 86.9006H349.094V88.6006H319.667C319.28 88.6006 318.967 88.6006 318.967 88.6006V88.4506ZM318.967 88.6006M349.094 97.2887H318.967H349.094M349.094 97.2887M318.967 97.2887V87.7506V97.2887M318.967 97.2887M349.094 87.7506V97.2887V87.7506" fill="black" mask="url(#path-18-outside-9_2524_251)"/>
<mask id="path-20-inside-10_2524_251" fill="white">
<path d="M318.967 88.4506C318.967 88.064 319.28 87.7506 319.667 87.7506H349.094V97.2887H319.667C319.28 97.2887 318.967 96.9753 318.967 96.5887V88.4506Z"/>
</mask>
<path d="M318.967 88.4506C318.967 88.064 319.28 87.7506 319.667 87.7506H349.094V97.2887H319.667C319.28 97.2887 318.967 96.9753 318.967 96.5887V88.4506Z" fill="#007A55"/>
<path d="M318.967 87.7506H349.094H318.967M349.094 97.7887H320.167C319.504 97.7887 318.967 97.2514 318.967 96.5887V96.5887C318.967 96.6991 319.28 96.7887 319.667 96.7887H349.094V97.7887ZM349.094 96.7887M318.967 97.2887V87.7506V97.2887M318.967 97.2887M349.094 87.7506V97.2887V87.7506" fill="#535353" mask="url(#path-20-inside-10_2524_251)"/>
<mask id="path-22-outside-11_2524_251" maskUnits="userSpaceOnUse" x="1.90771" y="33.3372" width="30" height="11" fill="black">
<rect fill="white" x="1.90771" y="33.3372" width="30" height="11"/>
<path d="M1.90771 35.0372C1.90771 34.6506 2.22112 34.3372 2.60771 34.3372H31.2734V43.8752H2.60772C2.22112 43.8752 1.90771 43.5618 1.90771 43.1752V35.0372Z"/>
</mask>
<path d="M1.90771 35.0372C1.90771 34.6506 2.22112 34.3372 2.60771 34.3372H31.2734V43.8752H2.60772C2.22112 43.8752 1.90771 43.5618 1.90771 43.1752V35.0372Z" fill="#007A55"/>
<path d="M1.90771 35.0372C1.90771 34.1811 2.60167 33.4872 3.45771 33.4872H31.2734V35.1872H2.60771C2.22112 35.1872 1.90771 35.1872 1.90771 35.1872V35.0372ZM1.90771 35.1872M31.2734 43.8752H1.90771H31.2734M31.2734 43.8752M1.90771 43.8752V34.3372V43.8752M1.90771 43.8752M31.2734 34.3372V43.8752V34.3372" fill="black" mask="url(#path-22-outside-11_2524_251)"/>
<mask id="path-24-inside-12_2524_251" fill="white">
<path d="M1.90771 35.0372C1.90771 34.6506 2.22112 34.3372 2.60771 34.3372H31.2734V43.8752H2.60772C2.22112 43.8752 1.90771 43.5618 1.90771 43.1752V35.0372Z"/>
</mask>
<path d="M1.90771 35.0372C1.90771 34.6506 2.22112 34.3372 2.60771 34.3372H31.2734V43.8752H2.60772C2.22112 43.8752 1.90771 43.5618 1.90771 43.1752V35.0372Z" fill="#007A55"/>
<path d="M1.90771 34.3372H31.2734H1.90771M31.2734 44.3752H3.10771C2.44497 44.3752 1.90771 43.8379 1.90771 43.1752V43.1752C1.90771 43.2857 2.22112 43.3752 2.60771 43.3752H31.2734V44.3752ZM31.2734 43.3752M1.90771 43.8752V34.3372V43.8752M1.90771 43.8752M31.2734 34.3372V43.8752V34.3372" fill="#535353" mask="url(#path-24-inside-12_2524_251)"/>
<mask id="path-26-outside-13_2524_251" maskUnits="userSpaceOnUse" x="1.90771" y="46.6904" width="30" height="11" fill="black">
<rect fill="white" x="1.90771" y="46.6904" width="30" height="11"/>
<path d="M1.90771 48.3904C1.90771 48.0038 2.22112 47.6904 2.60771 47.6904H31.2734V57.2285H2.60772C2.22112 57.2285 1.90771 56.9151 1.90771 56.5285V48.3904Z"/>
</mask>
<path d="M1.90771 48.3904C1.90771 48.0038 2.22112 47.6904 2.60771 47.6904H31.2734V57.2285H2.60772C2.22112 57.2285 1.90771 56.9151 1.90771 56.5285V48.3904Z" fill="#007A55"/>
<path d="M1.90771 48.3904C1.90771 47.5344 2.60167 46.8404 3.45771 46.8404H31.2734V48.5404H2.60771C2.22112 48.5404 1.90771 48.5404 1.90771 48.5404V48.3904ZM1.90771 48.5404M31.2734 57.2285H1.90771H31.2734M31.2734 57.2285M1.90771 57.2285V47.6904V57.2285M1.90771 57.2285M31.2734 47.6904V57.2285V47.6904" fill="black" mask="url(#path-26-outside-13_2524_251)"/>
<mask id="path-28-inside-14_2524_251" fill="white">
<path d="M1.90771 48.3904C1.90771 48.0038 2.22112 47.6904 2.60771 47.6904H31.2734V57.2285H2.60772C2.22112 57.2285 1.90771 56.9151 1.90771 56.5285V48.3904Z"/>
</mask>
<path d="M1.90771 48.3904C1.90771 48.0038 2.22112 47.6904 2.60771 47.6904H31.2734V57.2285H2.60772C2.22112 57.2285 1.90771 56.9151 1.90771 56.5285V48.3904Z" fill="#007A55"/>
<path d="M1.90771 47.6904H31.2734H1.90771M31.2734 57.7285H3.10771C2.44497 57.7285 1.90771 57.1912 1.90771 56.5285V56.5285C1.90771 56.6389 2.22112 56.7285 2.60771 56.7285H31.2734V57.7285ZM31.2734 56.7285M1.90771 57.2285V47.6904V57.2285M1.90771 57.2285M31.2734 47.6904V57.2285V47.6904" fill="#535353" mask="url(#path-28-inside-14_2524_251)"/>
<mask id="path-30-outside-15_2524_251" maskUnits="userSpaceOnUse" x="1.90771" y="60.0437" width="30" height="11" fill="black">
<rect fill="white" x="1.90771" y="60.0437" width="30" height="11"/>
<path d="M1.90771 61.7437C1.90771 61.3571 2.22112 61.0437 2.60771 61.0437H31.2734V70.5817H2.60772C2.22112 70.5817 1.90771 70.2683 1.90771 69.8817V61.7437Z"/>
</mask>
<path d="M1.90771 61.7437C1.90771 61.3571 2.22112 61.0437 2.60771 61.0437H31.2734V70.5817H2.60772C2.22112 70.5817 1.90771 70.2683 1.90771 69.8817V61.7437Z" fill="#007A55"/>
<path d="M1.90771 61.7437C1.90771 60.8877 2.60167 60.1937 3.45771 60.1937H31.2734V61.8937H2.60771C2.22112 61.8937 1.90771 61.8937 1.90771 61.8937V61.7437ZM1.90771 61.8937M31.2734 70.5817H1.90771H31.2734M31.2734 70.5817M1.90771 70.5817V61.0437V70.5817M1.90771 70.5817M31.2734 61.0437V70.5817V61.0437" fill="black" mask="url(#path-30-outside-15_2524_251)"/>
<mask id="path-32-inside-16_2524_251" fill="white">
<path d="M1.90771 61.7437C1.90771 61.3571 2.22112 61.0437 2.60771 61.0437H31.2734V70.5817H2.60772C2.22112 70.5817 1.90771 70.2683 1.90771 69.8817V61.7437Z"/>
</mask>
<path d="M1.90771 61.7437C1.90771 61.3571 2.22112 61.0437 2.60771 61.0437H31.2734V70.5817H2.60772C2.22112 70.5817 1.90771 70.2683 1.90771 69.8817V61.7437Z" fill="#007A55"/>
<path d="M1.90771 61.0437H31.2734H1.90771M31.2734 71.0817H3.10771C2.44497 71.0817 1.90771 70.5445 1.90771 69.8817V69.8817C1.90771 69.9922 2.22112 70.0817 2.60771 70.0817H31.2734V71.0817ZM31.2734 70.0817M1.90771 70.5817V61.0437V70.5817M1.90771 70.5817M31.2734 61.0437V70.5817V61.0437" fill="#535353" mask="url(#path-32-inside-16_2524_251)"/>
<mask id="path-34-outside-17_2524_251" maskUnits="userSpaceOnUse" x="1.90771" y="73.3972" width="30" height="11" fill="black">
<rect fill="white" x="1.90771" y="73.3972" width="30" height="11"/>
<path d="M1.90771 75.0972C1.90771 74.7106 2.22112 74.3972 2.60771 74.3972H31.2734V83.9353H2.60772C2.22112 83.9353 1.90771 83.6219 1.90771 83.2353V75.0972Z"/>
</mask>
<path d="M1.90771 75.0972C1.90771 74.7106 2.22112 74.3972 2.60771 74.3972H31.2734V83.9353H2.60772C2.22112 83.9353 1.90771 83.6219 1.90771 83.2353V75.0972Z" fill="#007A55"/>
<path d="M1.90771 75.0972C1.90771 74.2412 2.60167 73.5472 3.45771 73.5472H31.2734V75.2472H2.60771C2.22112 75.2472 1.90771 75.2472 1.90771 75.2472V75.0972ZM1.90771 75.2472M31.2734 83.9353H1.90771H31.2734M31.2734 83.9353M1.90771 83.9353V74.3972V83.9353M1.90771 83.9353M31.2734 74.3972V83.9353V74.3972" fill="black" mask="url(#path-34-outside-17_2524_251)"/>
<mask id="path-36-inside-18_2524_251" fill="white">
<path d="M1.90771 75.0972C1.90771 74.7106 2.22112 74.3972 2.60771 74.3972H31.2734V83.9353H2.60772C2.22112 83.9353 1.90771 83.6219 1.90771 83.2353V75.0972Z"/>
</mask>
<path d="M1.90771 75.0972C1.90771 74.7106 2.22112 74.3972 2.60771 74.3972H31.2734V83.9353H2.60772C2.22112 83.9353 1.90771 83.6219 1.90771 83.2353V75.0972Z" fill="#007A55"/>
<path d="M1.90771 74.3972H31.2734H1.90771M31.2734 84.4353H3.10771C2.44497 84.4353 1.90771 83.898 1.90771 83.2353V83.2353C1.90771 83.3457 2.22112 83.4353 2.60771 83.4353H31.2734V84.4353ZM31.2734 83.4353M1.90771 83.9353V74.3972V83.9353M1.90771 83.9353M31.2734 74.3972V83.9353V74.3972" fill="#535353" mask="url(#path-36-inside-18_2524_251)"/>
<mask id="path-38-outside-19_2524_251" maskUnits="userSpaceOnUse" x="1.90771" y="86.7505" width="30" height="11" fill="black">
<rect fill="white" x="1.90771" y="86.7505" width="30" height="11"/>
<path d="M1.90771 88.4505C1.90771 88.0639 2.22112 87.7505 2.60771 87.7505H31.2734V97.2886H2.60772C2.22112 97.2886 1.90771 96.9752 1.90771 96.5886V88.4505Z"/>
</mask>
<path d="M1.90771 88.4505C1.90771 88.0639 2.22112 87.7505 2.60771 87.7505H31.2734V97.2886H2.60772C2.22112 97.2886 1.90771 96.9752 1.90771 96.5886V88.4505Z" fill="#007A55"/>
<path d="M1.90771 88.4505C1.90771 87.5945 2.60167 86.9005 3.45771 86.9005H31.2734V88.6005H2.60771C2.22112 88.6005 1.90771 88.6005 1.90771 88.6005V88.4505ZM1.90771 88.6005M31.2734 97.2886H1.90771H31.2734M31.2734 97.2886M1.90771 97.2886V87.7505V97.2886M1.90771 97.2886M31.2734 87.7505V97.2886V87.7505" fill="black" mask="url(#path-38-outside-19_2524_251)"/>
<mask id="path-40-inside-20_2524_251" fill="white">
<path d="M1.90771 88.4505C1.90771 88.0639 2.22112 87.7505 2.60771 87.7505H31.2734V97.2886H2.60772C2.22112 97.2886 1.90771 96.9752 1.90771 96.5886V88.4505Z"/>
</mask>
<path d="M1.90771 88.4505C1.90771 88.0639 2.22112 87.7505 2.60771 87.7505H31.2734V97.2886H2.60772C2.22112 97.2886 1.90771 96.9752 1.90771 96.5886V88.4505Z" fill="#007A55"/>
<path d="M1.90771 87.7505H31.2734H1.90771M31.2734 97.7886H3.10771C2.44497 97.7886 1.90771 97.2513 1.90771 96.5886V96.5886C1.90771 96.699 2.22112 96.7886 2.60771 96.7886H31.2734V97.7886ZM31.2734 96.7886M1.90771 97.2886V87.7505V97.2886M1.90771 97.2886M31.2734 87.7505V97.2886V87.7505" fill="#535353" mask="url(#path-40-inside-20_2524_251)"/>
<mask id="path-42-outside-21_2524_251" maskUnits="userSpaceOnUse" x="0" y="167.151" width="15" height="245" fill="black">
<rect fill="white" y="167.151" width="15" height="245"/>
<path d="M0 167.151H13.3533V412.046H0V167.151Z"/>
</mask>
<path d="M0 167.151H13.3533V412.046H0V167.151Z" fill="#444346"/>
<path d="M13.3533 167.151H12.3533V412.046H13.3533H14.3533V167.151H13.3533Z" fill="#535353" mask="url(#path-42-outside-21_2524_251)"/>
<mask id="path-44-inside-22_2524_251" fill="white">
<path d="M0 167.151H13.3533V412.046H0V167.151Z"/>
</mask>
<path d="M0 167.151H13.3533V412.046H0V167.151Z" fill="#007A55"/>
<path d="M0 167.151V168.451H13.3533V167.151V165.851H0V167.151Z" fill="black" mask="url(#path-44-inside-22_2524_251)"/>
<mask id="path-46-outside-23_2524_251" maskUnits="userSpaceOnUse" x="334.095" y="167.151" width="15" height="245" fill="black">
<rect fill="white" x="334.095" y="167.151" width="15" height="245"/>
<path d="M349.095 167.151H335.741V412.046H349.095V167.151Z"/>
</mask>
<path d="M349.095 167.151H335.741V412.046H349.095V167.151Z" fill="#007A55"/>
<path d="M335.741 167.151H336.741V412.046H335.741H334.741V167.151H335.741Z" fill="#535353" mask="url(#path-46-outside-23_2524_251)"/>
<mask id="path-48-inside-24_2524_251" fill="white">
<path d="M349.095 167.151H335.741V412.046H349.095V167.151Z"/>
</mask>
<path d="M349.095 167.151H335.741V412.046H349.095V167.151Z" fill="#007A55"/>
<path d="M349.095 167.151V168.451H335.741V167.151V165.851H349.095V167.151Z" fill="black" mask="url(#path-48-inside-24_2524_251)"/>
<path d="M176.848 402.766C176.117 403.542 174.884 403.542 174.153 402.766L148.261 375.255C147.15 374.074 147.986 372.137 149.607 372.137L201.394 372.137C203.015 372.137 203.852 374.074 202.741 375.255L176.848 402.766Z" fill="#242424" stroke="black" stroke-width="0.3"/>
</svg>
