<svg width="351" height="413" viewBox="0 0 351 413" fill="none" xmlns="http://www.w3.org/2000/svg">
<path d="M0 412.046H351.002V22.4643C351.002 20.2552 349.211 18.4643 347.002 18.4643H317.619V4C317.619 1.79086 315.828 0 313.619 0H6C2.68629 0 0 2.68629 0 6V412.046Z" fill="#161616"/>
<mask id="path-2-outside-1_2524_251" maskUnits="userSpaceOnUse" x="297.589" y="33.3373" width="52" height="11" fill="black">
<rect fill="white" x="297.589" y="33.3373" width="52" height="11"/>
<path d="M297.589 35.0373C297.589 34.6507 297.902 34.3373 298.289 34.3373H349.094V43.8753H298.289C297.902 43.8753 297.589 43.5619 297.589 43.1753V35.0373Z"/>
</mask>
<path d="M297.589 35.0373C297.589 34.6507 297.902 34.3373 298.289 34.3373H349.094V43.8753H298.289C297.902 43.8753 297.589 43.5619 297.589 43.1753V35.0373Z" fill="#007A55"/>
<path d="M297.589 35.0373C297.589 34.1812 298.283 33.4873 299.139 33.4873H349.094V35.1873H298.289C297.902 35.1873 297.589 35.1873 297.589 35.1873V35.0373ZM297.589 35.1873M349.094 43.8753H297.589H349.094M349.094 43.8753M297.589 43.8753V34.3373V43.8753M297.589 43.8753M349.094 34.3373V43.8753V34.3373" fill="black" mask="url(#path-2-outside-1_2524_251)"/>
<mask id="path-4-outside-2_2524_251" maskUnits="userSpaceOnUse" x="299.496" y="46.6906" width="50" height="11" fill="black">
<rect fill="white" x="299.496" y="46.6906" width="50" height="11"/>
<path d="M299.496 48.3906C299.496 48.004 299.809 47.6906 300.196 47.6906H349.094V57.2286H300.196C299.809 57.2286 299.496 56.9152 299.496 56.5286V48.3906Z"/>
</mask>
<path d="M299.496 48.3906C299.496 48.004 299.809 47.6906 300.196 47.6906H349.094V57.2286H300.196C299.809 57.2286 299.496 56.9152 299.496 56.5286V48.3906Z" fill="#007A55"/>
<path d="M299.496 48.3906C299.496 47.5345 300.19 46.8406 301.046 46.8406H349.094V48.5406H300.196C299.809 48.5406 299.496 48.5406 299.496 48.5406V48.3906ZM299.496 48.5406M349.094 57.2286H299.496H349.094M349.094 57.2286M299.496 57.2286V47.6906V57.2286M299.496 57.2286M349.094 47.6906V57.2286V47.6906" fill="black" mask="url(#path-4-outside-2_2524_251)"/>
<mask id="path-6-outside-3_2524_251" maskUnits="userSpaceOnUse" x="299.496" y="60.0438" width="50" height="11" fill="black">
<rect fill="white" x="299.496" y="60.0438" width="50" height="11"/>
<path d="M299.496 61.7438C299.496 61.3572 299.809 61.0438 300.196 61.0438H349.094V70.5819H300.196C299.809 70.5819 299.496 70.2685 299.496 69.8819V61.7438Z"/>
</mask>
<path d="M299.496 61.7438C299.496 61.3572 299.809 61.0438 300.196 61.0438H349.094V70.5819H300.196C299.809 70.5819 299.496 70.2685 299.496 69.8819V61.7438Z" fill="#007A55"/>
<path d="M299.496 61.7438C299.496 60.8878 300.19 60.1938 301.046 60.1938H349.094V61.8938H300.196C299.809 61.8938 299.496 61.8938 299.496 61.8938V61.7438ZM299.496 61.8938M349.094 70.5819H299.496H349.094M349.094 70.5819M299.496 70.5819V61.0438V70.5819M299.496 70.5819M349.094 61.0438V70.5819V61.0438" fill="black" mask="url(#path-6-outside-3_2524_251)"/>
<mask id="path-8-outside-4_2524_251" maskUnits="userSpaceOnUse" x="297.589" y="73.3971" width="52" height="11" fill="black">
<rect fill="white" x="297.589" y="73.3971" width="52" height="11"/>
<path d="M297.589 75.0971C297.589 74.7105 297.902 74.3971 298.289 74.3971H349.094V83.9351H298.289C297.902 83.9351 297.589 83.6217 297.589 83.2351V75.0971Z"/>
</mask>
<path d="M297.589 75.0971C297.589 74.7105 297.902 74.3971 298.289 74.3971H349.094V83.9351H298.289C297.902 83.9351 297.589 83.6217 297.589 83.2351V75.0971Z" fill="#007A55"/>
<path d="M297.589 75.0971C297.589 74.2411 298.283 73.5471 299.139 73.5471H349.094V75.2471H298.289C297.902 75.2471 297.589 75.2471 297.589 75.2471V75.0971ZM297.589 75.2471M349.094 83.9351H297.589H349.094M349.094 83.9351M297.589 83.9351V74.3971V83.9351M297.589 83.9351M349.094 74.3971V83.9351V74.3971" fill="black" mask="url(#path-8-outside-4_2524_251)"/>
<mask id="path-10-outside-5_2524_251" maskUnits="userSpaceOnUse" x="297.589" y="86.7506" width="52" height="11" fill="black">
<rect fill="white" x="297.589" y="86.7506" width="52" height="11"/>
<path d="M297.589 88.4506C297.589 88.064 297.902 87.7506 298.289 87.7506H349.094V97.2887H298.289C297.902 97.2887 297.589 96.9753 297.589 96.5887V88.4506Z"/>
</mask>
<path d="M297.589 88.4506C297.589 88.064 297.902 87.7506 298.289 87.7506H349.094V97.2887H298.289C297.902 97.2887 297.589 96.9753 297.589 96.5887V88.4506Z" fill="#007A55"/>
<path d="M297.589 88.4506C297.589 87.5946 298.283 86.9006 299.139 86.9006H349.094V88.6006H298.289C297.902 88.6006 297.589 88.6006 297.589 88.6006V88.4506ZM297.589 88.6006M349.094 97.2887H297.589H349.094M349.094 97.2887M297.589 97.2887V87.7506V97.2887M297.589 97.2887M349.094 87.7506V97.2887V87.7506" fill="black" mask="url(#path-10-outside-5_2524_251)"/>
<mask id="path-12-inside-6_2524_251" fill="white">
<path d="M297.589 35.0373C297.589 34.6507 297.902 34.3373 298.289 34.3373H349.094V43.8753H298.289C297.902 43.8753 297.589 43.5619 297.589 43.1753V35.0373Z"/>
</mask>
<path d="M297.589 35.0373C297.589 34.6507 297.902 34.3373 298.289 34.3373H349.094V43.8753H298.289C297.902 43.8753 297.589 43.5619 297.589 43.1753V35.0373Z" fill="#007A55"/>
<path d="M297.589 34.3373H349.094H297.589M349.094 44.3753H298.789C298.126 44.3753 297.589 43.8381 297.589 43.1753V43.1753C297.589 43.2858 297.902 43.3753 298.289 43.3753H349.094V44.3753ZM349.094 43.3753M297.589 43.8753V34.3373V43.8753M297.589 43.8753M349.094 34.3373V43.8753V34.3373" fill="#535353" mask="url(#path-12-inside-6_2524_251)"/>
<mask id="path-14-inside-7_2524_251" fill="white">
<path d="M299.496 48.3906C299.496 48.004 299.809 47.6906 300.196 47.6906H349.094V57.2286H300.196C299.809 57.2286 299.496 56.9152 299.496 56.5286V48.3906Z"/>
</mask>
<path d="M299.496 48.3906C299.496 48.004 299.809 47.6906 300.196 47.6906H349.094V57.2286H300.196C299.809 57.2286 299.496 56.9152 299.496 56.5286V48.3906Z" fill="#007A55"/>
<path d="M299.496 47.6906H349.094H299.496M349.094 57.7286H300.696C300.033 57.7286 299.496 57.1913 299.496 56.5286V56.5286C299.496 56.6391 299.809 56.7286 300.196 56.7286H349.094V57.7286ZM349.094 56.7286M299.496 57.2286V47.6906V57.2286M299.496 57.2286M349.094 47.6906V57.2286V47.6906" fill="#535353" mask="url(#path-14-inside-7_2524_251)"/>
<mask id="path-16-inside-8_2524_251" fill="white">
<path d="M299.496 61.7438C299.496 61.3572 299.809 61.0438 300.196 61.0438H349.094V70.5819H300.196C299.809 70.5819 299.496 70.2685 299.496 69.8819V61.7438Z"/>
</mask>
<path d="M299.496 61.7438C299.496 61.3572 299.809 61.0438 300.196 61.0438H349.094V70.5819H300.196C299.809 70.5819 299.496 70.2685 299.496 69.8819V61.7438Z" fill="#007A55"/>
<path d="M299.496 61.0438H349.094H299.496M349.094 71.0819H300.696C300.033 71.0819 299.496 70.5446 299.496 69.8819V69.8819C299.496 69.9923 299.809 70.0819 300.196 70.0819H349.094V71.0819ZM349.094 70.0819M299.496 70.5819V61.0438V70.5819M299.496 70.5819M349.094 61.0438V70.5819V61.0438" fill="#535353" mask="url(#path-16-inside-8_2524_251)"/>
<mask id="path-18-inside-9_2524_251" fill="white">
<path d="M297.589 75.0971C297.589 74.7105 297.902 74.3971 298.289 74.3971H349.094V83.9351H298.289C297.902 83.9351 297.589 83.6217 297.589 83.2351V75.0971Z"/>
</mask>
<path d="M297.589 75.0971C297.589 74.7105 297.902 74.3971 298.289 74.3971H349.094V83.9351H298.289C297.902 83.9351 297.589 83.6217 297.589 83.2351V75.0971Z" fill="#007A55"/>
<path d="M297.589 74.3971H349.094H297.589M349.094 84.4351H298.789C298.126 84.4351 297.589 83.8979 297.589 83.2351V83.2351C297.589 83.3456 297.902 83.4351 298.289 83.4351H349.094V84.4351ZM349.094 83.4351M297.589 83.9351V74.3971V83.9351M297.589 83.9351M349.094 74.3971V83.9351V74.3971" fill="#535353" mask="url(#path-18-inside-9_2524_251)"/>
<mask id="path-20-inside-10_2524_251" fill="white">
<path d="M297.589 88.4506C297.589 88.064 297.902 87.7506 298.289 87.7506H349.094V97.2887H298.289C297.902 97.2887 297.589 96.9753 297.589 96.5887V88.4506Z"/>
</mask>
<path d="M297.589 88.4506C297.589 88.064 297.902 87.7506 298.289 87.7506H349.094V97.2887H298.289C297.902 97.2887 297.589 96.9753 297.589 96.5887V88.4506Z" fill="#007A55"/>
<path d="M297.589 87.7506H349.094H297.589M349.094 97.7887H298.789C298.126 97.7887 297.589 97.2514 297.589 96.5887V96.5887C297.589 96.6991 297.902 96.7887 298.289 96.7887H349.094V97.7887ZM349.094 96.7887M297.589 97.2887V87.7506V97.2887M297.589 97.2887M349.094 87.7506V97.2887V87.7506" fill="#535353" mask="url(#path-20-inside-10_2524_251)"/>
<mask id="path-22-outside-11_2524_251" maskUnits="userSpaceOnUse" x="1.90771" y="33.3372" width="52" height="11" fill="black">
<rect fill="white" x="1.90771" y="33.3372" width="52" height="11"/>
<path d="M1.90771 35.0372C1.90771 34.6506 2.22112 34.3372 2.60771 34.3372H53.4132V43.8752H2.60772C2.22112 43.8752 1.90771 43.5618 1.90771 43.1752V35.0372Z"/>
</mask>
<path d="M1.90771 35.0372C1.90771 34.6506 2.22112 34.3372 2.60771 34.3372H53.4132V43.8752H2.60772C2.22112 43.8752 1.90771 43.5618 1.90771 43.1752V35.0372Z" fill="#007A55"/>
<path d="M1.90771 35.0372C1.90771 34.1811 2.60167 33.4872 3.45771 33.4872H53.4132V35.1872H2.60771C2.22112 35.1872 1.90771 35.1872 1.90771 35.1872V35.0372ZM1.90771 35.1872M53.4132 43.8752H1.90771H53.4132M53.4132 43.8752M1.90771 43.8752V34.3372V43.8752M1.90771 43.8752M53.4132 34.3372V43.8752V34.3372" fill="black" mask="url(#path-22-outside-11_2524_251)"/>
<mask id="path-24-outside-12_2524_251" maskUnits="userSpaceOnUse" x="1.90771" y="46.6904" width="50" height="11" fill="black">
<rect fill="white" x="1.90771" y="46.6904" width="50" height="11"/>
<path d="M1.90771 48.3904C1.90771 48.0038 2.22112 47.6904 2.60771 47.6904H51.5055V57.2285H2.60772C2.22112 57.2285 1.90771 56.9151 1.90771 56.5285V48.3904Z"/>
</mask>
<path d="M1.90771 48.3904C1.90771 48.0038 2.22112 47.6904 2.60771 47.6904H51.5055V57.2285H2.60772C2.22112 57.2285 1.90771 56.9151 1.90771 56.5285V48.3904Z" fill="#007A55"/>
<path d="M1.90771 48.3904C1.90771 47.5344 2.60167 46.8404 3.45771 46.8404H51.5055V48.5404H2.60771C2.22112 48.5404 1.90771 48.5404 1.90771 48.5404V48.3904ZM1.90771 48.5404M51.5055 57.2285H1.90771H51.5055M51.5055 57.2285M1.90771 57.2285V47.6904V57.2285M1.90771 57.2285M51.5055 47.6904V57.2285V47.6904" fill="black" mask="url(#path-24-outside-12_2524_251)"/>
<mask id="path-26-outside-13_2524_251" maskUnits="userSpaceOnUse" x="1.90771" y="60.0437" width="50" height="11" fill="black">
<rect fill="white" x="1.90771" y="60.0437" width="50" height="11"/>
<path d="M1.90771 61.7437C1.90771 61.3571 2.22112 61.0437 2.60771 61.0437H51.5055V70.5817H2.60772C2.22112 70.5817 1.90771 70.2683 1.90771 69.8817V61.7437Z"/>
</mask>
<path d="M1.90771 61.7437C1.90771 61.3571 2.22112 61.0437 2.60771 61.0437H51.5055V70.5817H2.60772C2.22112 70.5817 1.90771 70.2683 1.90771 69.8817V61.7437Z" fill="#007A55"/>
<path d="M1.90771 61.7437C1.90771 60.8877 2.60167 60.1937 3.45771 60.1937H51.5055V61.8937H2.60771C2.22112 61.8937 1.90771 61.8937 1.90771 61.8937V61.7437ZM1.90771 61.8937M51.5055 70.5817H1.90771H51.5055M51.5055 70.5817M1.90771 70.5817V61.0437V70.5817M1.90771 70.5817M51.5055 61.0437V70.5817V61.0437" fill="black" mask="url(#path-26-outside-13_2524_251)"/>
<mask id="path-28-outside-14_2524_251" maskUnits="userSpaceOnUse" x="1.90771" y="73.3972" width="52" height="11" fill="black">
<rect fill="white" x="1.90771" y="73.3972" width="52" height="11"/>
<path d="M1.90771 75.0972C1.90771 74.7106 2.22112 74.3972 2.60771 74.3972H53.4132V83.9353H2.60772C2.22112 83.9353 1.90771 83.6219 1.90771 83.2353V75.0972Z"/>
</mask>
<path d="M1.90771 75.0972C1.90771 74.7106 2.22112 74.3972 2.60771 74.3972H53.4132V83.9353H2.60772C2.22112 83.9353 1.90771 83.6219 1.90771 83.2353V75.0972Z" fill="#007A55"/>
<path d="M1.90771 75.0972C1.90771 74.2412 2.60167 73.5472 3.45771 73.5472H53.4132V75.2472H2.60771C2.22112 75.2472 1.90771 75.2472 1.90771 75.2472V75.0972ZM1.90771 75.2472M53.4132 83.9353H1.90771H53.4132M53.4132 83.9353M1.90771 83.9353V74.3972V83.9353M1.90771 83.9353M53.4132 74.3972V83.9353V74.3972" fill="black" mask="url(#path-28-outside-14_2524_251)"/>
<mask id="path-30-outside-15_2524_251" maskUnits="userSpaceOnUse" x="1.90771" y="86.7505" width="52" height="11" fill="black">
<rect fill="white" x="1.90771" y="86.7505" width="52" height="11"/>
<path d="M1.90771 88.4505C1.90771 88.0639 2.22112 87.7505 2.60771 87.7505H53.4132V97.2886H2.60772C2.22112 97.2886 1.90771 96.9752 1.90771 96.5886V88.4505Z"/>
</mask>
<path d="M1.90771 88.4505C1.90771 88.0639 2.22112 87.7505 2.60771 87.7505H53.4132V97.2886H2.60772C2.22112 97.2886 1.90771 96.9752 1.90771 96.5886V88.4505Z" fill="#007A55"/>
<path d="M1.90771 88.4505C1.90771 87.5945 2.60167 86.9005 3.45771 86.9005H53.4132V88.6005H2.60771C2.22112 88.6005 1.90771 88.6005 1.90771 88.6005V88.4505ZM1.90771 88.6005M53.4132 97.2886H1.90771H53.4132M53.4132 97.2886M1.90771 97.2886V87.7505V97.2886M1.90771 97.2886M53.4132 87.7505V97.2886V87.7505" fill="black" mask="url(#path-30-outside-15_2524_251)"/>
<mask id="path-32-inside-16_2524_251" fill="white">
<path d="M1.90771 35.0372C1.90771 34.6506 2.22112 34.3372 2.60771 34.3372H53.4132V43.8752H2.60772C2.22112 43.8752 1.90771 43.5618 1.90771 43.1752V35.0372Z"/>
</mask>
<path d="M1.90771 35.0372C1.90771 34.6506 2.22112 34.3372 2.60771 34.3372H53.4132V43.8752H2.60772C2.22112 43.8752 1.90771 43.5618 1.90771 43.1752V35.0372Z" fill="#007A55"/>
<path d="M1.90771 34.3372H53.4132H1.90771M53.4132 44.3752H3.10771C2.44497 44.3752 1.90771 43.8379 1.90771 43.1752V43.1752C1.90771 43.2857 2.22112 43.3752 2.60771 43.3752H53.4132V44.3752ZM53.4132 43.3752M1.90771 43.8752V34.3372V43.8752M1.90771 43.8752M53.4132 34.3372V43.8752V34.3372" fill="#535353" mask="url(#path-32-inside-16_2524_251)"/>
<mask id="path-34-inside-17_2524_251" fill="white">
<path d="M1.90771 48.3904C1.90771 48.0038 2.22112 47.6904 2.60771 47.6904H51.5055V57.2285H2.60772C2.22112 57.2285 1.90771 56.9151 1.90771 56.5285V48.3904Z"/>
</mask>
<path d="M1.90771 48.3904C1.90771 48.0038 2.22112 47.6904 2.60771 47.6904H51.5055V57.2285H2.60772C2.22112 57.2285 1.90771 56.9151 1.90771 56.5285V48.3904Z" fill="#007A55"/>
<path d="M1.90771 47.6904H51.5055H1.90771M51.5055 57.7285H3.10771C2.44497 57.7285 1.90771 57.1912 1.90771 56.5285V56.5285C1.90771 56.6389 2.22112 56.7285 2.60771 56.7285H51.5055V57.7285ZM51.5055 56.7285M1.90771 57.2285V47.6904V57.2285M1.90771 57.2285M51.5055 47.6904V57.2285V47.6904" fill="#535353" mask="url(#path-34-inside-17_2524_251)"/>
<mask id="path-36-inside-18_2524_251" fill="white">
<path d="M1.90771 61.7437C1.90771 61.3571 2.22112 61.0437 2.60771 61.0437H51.5055V70.5817H2.60772C2.22112 70.5817 1.90771 70.2683 1.90771 69.8817V61.7437Z"/>
</mask>
<path d="M1.90771 61.7437C1.90771 61.3571 2.22112 61.0437 2.60771 61.0437H51.5055V70.5817H2.60772C2.22112 70.5817 1.90771 70.2683 1.90771 69.8817V61.7437Z" fill="#007A55"/>
<path d="M1.90771 61.0437H51.5055H1.90771M51.5055 71.0817H3.10771C2.44497 71.0817 1.90771 70.5445 1.90771 69.8817V69.8817C1.90771 69.9922 2.22112 70.0817 2.60771 70.0817H51.5055V71.0817ZM51.5055 70.0817M1.90771 70.5817V61.0437V70.5817M1.90771 70.5817M51.5055 61.0437V70.5817V61.0437" fill="#535353" mask="url(#path-36-inside-18_2524_251)"/>
<mask id="path-38-inside-19_2524_251" fill="white">
<path d="M1.90771 75.0972C1.90771 74.7106 2.22112 74.3972 2.60771 74.3972H53.4132V83.9353H2.60772C2.22112 83.9353 1.90771 83.6219 1.90771 83.2353V75.0972Z"/>
</mask>
<path d="M1.90771 75.0972C1.90771 74.7106 2.22112 74.3972 2.60771 74.3972H53.4132V83.9353H2.60772C2.22112 83.9353 1.90771 83.6219 1.90771 83.2353V75.0972Z" fill="#007A55"/>
<path d="M1.90771 74.3972H53.4132H1.90771M53.4132 84.4353H3.10771C2.44497 84.4353 1.90771 83.898 1.90771 83.2353V83.2353C1.90771 83.3457 2.22112 83.4353 2.60771 83.4353H53.4132V84.4353ZM53.4132 83.4353M1.90771 83.9353V74.3972V83.9353M1.90771 83.9353M53.4132 74.3972V83.9353V74.3972" fill="#535353" mask="url(#path-38-inside-19_2524_251)"/>
<mask id="path-40-inside-20_2524_251" fill="white">
<path d="M1.90771 88.4505C1.90771 88.0639 2.22112 87.7505 2.60771 87.7505H53.4132V97.2886H2.60772C2.22112 97.2886 1.90771 96.9752 1.90771 96.5886V88.4505Z"/>
</mask>
<path d="M1.90771 88.4505C1.90771 88.0639 2.22112 87.7505 2.60771 87.7505H53.4132V97.2886H2.60772C2.22112 97.2886 1.90771 96.9752 1.90771 96.5886V88.4505Z" fill="#007A55"/>
<path d="M1.90771 87.7505H53.4132H1.90771M53.4132 97.7886H3.10771C2.44497 97.7886 1.90771 97.2513 1.90771 96.5886V96.5886C1.90771 96.699 2.22112 96.7886 2.60771 96.7886H53.4132V97.7886ZM53.4132 96.7886M1.90771 97.2886V87.7505V97.2886M1.90771 97.2886M53.4132 87.7505V97.2886V87.7505" fill="#535353" mask="url(#path-40-inside-20_2524_251)"/>
<rect x="36.6523" y="27.1143" width="277.697" height="81.2124" rx="40.6062" fill="#535353" stroke="#161616" stroke-width="3"/>
<mask id="path-43-outside-21_2524_251" maskUnits="userSpaceOnUse" x="0" y="167.151" width="15" height="245" fill="black">
<rect fill="white" y="167.151" width="15" height="245"/>
<path d="M0 167.151H13.3533V412.046H0V167.151Z"/>
</mask>
<path d="M0 167.151H13.3533V412.046H0V167.151Z" fill="#444346"/>
<path d="M13.3533 167.151H12.3533V412.046H13.3533H14.3533V167.151H13.3533Z" fill="#535353" mask="url(#path-43-outside-21_2524_251)"/>
<mask id="path-45-inside-22_2524_251" fill="white">
<path d="M0 167.151H13.3533V412.046H0V167.151Z"/>
</mask>
<path d="M0 167.151H13.3533V412.046H0V167.151Z" fill="#007A55"/>
<path d="M0 167.151V168.451H13.3533V167.151V165.851H0V167.151Z" fill="black" mask="url(#path-45-inside-22_2524_251)"/>
<mask id="path-47-outside-23_2524_251" maskUnits="userSpaceOnUse" x="334.095" y="167.151" width="15" height="245" fill="black">
<rect fill="white" x="334.095" y="167.151" width="15" height="245"/>
<path d="M349.095 167.151H335.741V412.046H349.095V167.151Z"/>
</mask>
<path d="M349.095 167.151H335.741V412.046H349.095V167.151Z" fill="#007A55"/>
<path d="M335.741 167.151H336.741V412.046H335.741H334.741V167.151H335.741Z" fill="#535353" mask="url(#path-47-outside-23_2524_251)"/>
<mask id="path-49-inside-24_2524_251" fill="white">
<path d="M349.095 167.151H335.741V412.046H349.095V167.151Z"/>
</mask>
<path d="M349.095 167.151H335.741V412.046H349.095V167.151Z" fill="#007A55"/>
<path d="M349.095 167.151V168.451H335.741V167.151V165.851H349.095V167.151Z" fill="black" mask="url(#path-49-inside-24_2524_251)"/>
<rect x="38.3023" y="122.238" width="274.397" height="243.875" rx="3.85" fill="#535353" stroke="black" stroke-width="0.3"/>
<path d="M176.848 402.766C176.117 403.542 174.884 403.542 174.153 402.766L148.261 375.255C147.15 374.074 147.986 372.137 149.607 372.137L201.394 372.137C203.015 372.137 203.852 374.074 202.741 375.255L176.848 402.766Z" fill="#242424" stroke="black" stroke-width="0.3"/>
</svg>
